<?xml version="1.0" encoding="UTF-8"?>
<svg width="130.54mm" height="110.19mm" version="1.1" viewBox="0 0 130.54 110.19" xmlns="http://www.w3.org/2000/svg" xmlns:cc="http://creativecommons.org/ns#" xmlns:dc="http://purl.org/dc/elements/1.1/" xmlns:rdf="http://www.w3.org/1999/02/22-rdf-syntax-ns#" xmlns:xlink="http://www.w3.org/1999/xlink">
 <defs>
  <radialGradient id="radialGradient1016" cx="106.4" cy="178.23" r="65.271" gradientTransform="matrix(1 0 0 .84412 0 27.782)" gradientUnits="userSpaceOnUse">
   <stop stop-color="#fff" offset="0"/>
   <stop stop-color="#fff" stop-opacity="0" offset="1"/>
  </radialGradient>
  <filter id="filter1026" x="-8.5023e-6" y="-1.4799e-5" width="1" height="1" color-interpolation-filters="sRGB">
   <feGaussianBlur stdDeviation="0.00067326509"/>
  </filter>
 </defs>
 <metadata>
  <rdf:RDF>
   <cc:Work rdf:about="">
    <dc:format>image/svg+xml</dc:format>
    <dc:type rdf:resource="http://purl.org/dc/dcmitype/StillImage"/>
    <dc:title/>
   </cc:Work>
  </rdf:RDF>
 </metadata>
 <g transform="translate(-41.131 -123.14)" filter="url(#filter1026)">
  <path d="m124.38 177.1" fill="none" stroke="#000" stroke-width=".22567px"/>
  <path d="m91.247 144.79c9.8273-5.1548 22.224-5.0575 31.969 0.25105 0.0763 0.0416 0.15239 0.0834 0.22835 0.12553" fill="none" stroke="#000" stroke-width=".22347px"/>
  <g>
   <g stroke="#fff" stroke-miterlimit="4.9">
    <path d="m113.29 222.59c-0.2717-0.0135-1.2844-0.0636-2.2504-0.11131-0.96603-0.0477-3.6336-0.14057-5.9279-0.20635-7.9057-0.22663-9.4734-0.37874-10.555-1.0242-0.53412-0.31868-0.69727-0.56068-0.69492-1.0307 6e-3 -1.189 0.7022-2.8204 2.52-5.9045 2.4311-4.1247 2.8457-5.409 2.7126-8.4027-0.0841-1.8906-0.42057-3.4868-1.3177-6.2511-1.029-3.3973-2.2448-6.8292-2.9085-9.0621-3.5986-11.67-5.6191-19.743-6.2748-25.073-0.11392-0.92587-0.33168-3.2644-0.33199-3.5652l-1.66e-4 -0.16272h38.06l0.0705 0.48818c0.17827 1.2344 0.0398 4.0296-0.31584 6.376-0.39394 2.5991-0.81433 4.3185-3.6161 14.79-3.0635 11.449-3.6233 13.83-4.2244 17.963-0.76487 5.2597-0.49185 9.332 0.81183 12.109 0.50597 1.0778 0.95402 1.7179 1.8377 2.6251 1.5907 1.6331 2.049 2.1798 2.2318 2.6628 0.65421 1.7286-1.7444 3.2538-5.7646 3.6655-0.94592 0.0969-3.1589 0.15917-4.0617 0.11433z" fill="#e5a900" stroke-width=".30812"/>
    <path d="m126.33 164.44-0.0497-2.5741h-18.975c-17.888 0-18.981 0.0119-19.074 0.20711-0.05429 0.11391-0.06384-0.13905-0.02121-0.56215 0.04261-0.42309 0.12916-1.9675 0.19231-3.4321 0.13459-3.121 0.55917-5.8995 1.3292-8.6986 0.30442-1.1066 0.64979-2.438 0.7675-2.9587 0.34306-1.5178 0.40976-1.5894 2.1532-2.3144 4.1678-1.733 10.115-2.7243 15.256-2.5428 2.4968 0.0882 5.5082 0.47215 7.8841 1.0053 1.8573 0.41678 4.9874 1.4935 6.6182 2.2766l1.0704 0.51398 0.13025 1.7947 0.0462 0.63673c0.19668 2.7101 0.35035 3.5724 1.4116 7.9202 1.2197 4.9972 1.4621 6.5844 1.3828 9.0536l-0.0722 2.2486z" fill="#f4ece1" stroke-width=".61624"/>
    <path d="m121.86 144.18c-2.116-1.0281-5.7734-2.0351-9.3725-2.5806-1.3963-0.21161-2.2508-0.25124-5.425-0.25161-3.411-3.3e-4 -3.9714 0.0296-5.9206 0.31722-2.4546 0.36217-6.3394 1.3728-8.0374 2.0909-1.2913 0.54611-1.3256 0.47212-0.30136-0.64989 3.8318-4.1977 12.765-6.1154 20.494-4.3994 1.8009 0.39986 3.4498 0.97034 4.8733 1.6718 1.8038 0.88883 3.2457 1.9879 4.1762 3.2166 0.37039 0.48908 0.64349 0.93301 0.60688 0.9865-0.0366 0.0535-0.52851-0.12718-1.0931-0.40151z" fill="#f4ece1" stroke-width=".61024"/>
   </g>
   <text transform="translate(71.499 29.385)" fill="#000000" font-family="'Bauhaus 93'" font-size="14.111px" style="line-height:1.25;white-space:pre" xml:space="preserve"><textPath xlink:href="#path24"><tspan font-family="'Bauhaus 93'" font-size="14.111px">       Pilsner Pals </tspan></textPath></text>
  </g>
  <path id="path24" d="m-18.879 133.84c9.4397 7.9243 20.614 13.771 32.506 17.009 24.531 6.6787 51.975 1.676 72.571-13.229" fill-opacity="0" stroke="#fff" stroke-width=".26458px"/>
  <ellipse cx="106.4" cy="178.23" rx="64.766" ry="54.591" fill="url(#radialGradient1016)" stroke-miterlimit="4.9" stroke-opacity="0" style="mix-blend-mode:overlay"/>
 </g>
</svg>
