<?xml version="1.0" encoding="UTF-8" standalone="no"?>
<svg
   xmlns:dc="http://purl.org/dc/elements/1.1/"
   xmlns:cc="http://creativecommons.org/ns#"
   xmlns:rdf="http://www.w3.org/1999/02/22-rdf-syntax-ns#"
   xmlns:svg="http://www.w3.org/2000/svg"
   xmlns="http://www.w3.org/2000/svg"
   xmlns:xlink="http://www.w3.org/1999/xlink"
   xmlns:sodipodi="http://sodipodi.sourceforge.net/DTD/sodipodi-0.dtd"
   xmlns:inkscape="http://www.inkscape.org/namespaces/inkscape"
   inkscape:export-ydpi="96"
   inkscape:export-xdpi="96"
   inkscape:export-filename="C:\Users\fello\Source\pils\escape-gwj\Assets\branding\pils.png"
   width="130.54253mm"
   height="110.19398mm"
   viewBox="0 0 130.54253 110.19398"
   version="1.1"
   id="svg8"
   inkscape:version="1.0 (4035a4fb49, 2020-05-01)"
   sodipodi:docname="pils_file.svg">
  <defs
     id="defs2">
    <linearGradient
       inkscape:collect="always"
       id="linearGradient1014">
      <stop
         style="stop-color:#ffffff;stop-opacity:1;"
         offset="0"
         id="stop1010" />
      <stop
         style="stop-color:#ffffff;stop-opacity:0;"
         offset="1"
         id="stop1012" />
    </linearGradient>
    <inkscape:path-effect
       effect="spiro"
       id="path-effect98"
       is_visible="true"
       lpeversion="1" />
    <inkscape:path-effect
       effect="spiro"
       id="path-effect59"
       is_visible="true"
       lpeversion="1" />
    <rect
       x="60.476192"
       y="158.75"
       width="74.461311"
       height="22.300594"
       id="rect34" />
    <inkscape:path-effect
       effect="spiro"
       id="path-effect26"
       is_visible="true"
       lpeversion="1" />
    <rect
       x="57.452381"
       y="162.15179"
       width="88.446426"
       height="26.836309"
       id="rect18" />
    <rect
       x="58.964287"
       y="165.55357"
       width="102.05357"
       height="29.860119"
       id="rect12" />
    <radialGradient
       inkscape:collect="always"
       xlink:href="#linearGradient1014"
       id="radialGradient1016"
       cx="106.4018"
       cy="178.23334"
       fx="106.4018"
       fy="178.23334"
       r="65.271263"
       gradientTransform="matrix(1,0,0,0.84412327,-144.32555,49.163992)"
       gradientUnits="userSpaceOnUse" />
    <filter
       inkscape:collect="always"
       style="color-interpolation-filters:sRGB"
       id="filter1026"
       x="-8.502323e-06"
       width="1.000017"
       y="-1.4799409e-05"
       height="1.0000296">
      <feGaussianBlur
         inkscape:collect="always"
         stdDeviation="0.00067326509"
         id="feGaussianBlur1028" />
    </filter>
  </defs>
  <sodipodi:namedview
     id="base"
     pagecolor="#ffffff"
     bordercolor="#666666"
     borderopacity="1.0"
     inkscape:pageopacity="0.0"
     inkscape:pageshadow="2"
     inkscape:zoom="0.98994949"
     inkscape:cx="154.90264"
     inkscape:cy="214.89633"
     inkscape:document-units="mm"
     inkscape:current-layer="layer2"
     inkscape:document-rotation="0"
     showgrid="false"
     inkscape:object-paths="false"
     inkscape:snap-intersection-paths="false"
     inkscape:window-width="1890"
     inkscape:window-height="869"
     inkscape:window-x="1401"
     inkscape:window-y="82"
     inkscape:window-maximized="0"
     inkscape:pagecheckerboard="true"
     fit-margin-top="0"
     fit-margin-left="0"
     fit-margin-right="0"
     fit-margin-bottom="0" />
  <metadata
     id="metadata5">
    <rdf:RDF>
      <cc:Work
         rdf:about="">
        <dc:format>image/svg+xml</dc:format>
        <dc:type
           rdf:resource="http://purl.org/dc/dcmitype/StillImage" />
        <dc:title />
      </cc:Work>
    </rdf:RDF>
  </metadata>
  <g
     inkscape:groupmode="layer"
     id="layer2"
     inkscape:label="Layer 2"
     style="filter:url(#filter1026)"
     transform="translate(-41.130542,-123.13635)">
    <path
       style="fill:none;stroke:#000000;stroke-width:0.225672px;stroke-linecap:butt;stroke-linejoin:miter;stroke-opacity:1"
       d="M 124.37627,177.09633 Z"
       id="path57"
       inkscape:original-d="m 124.37627,177.09633 c -82.917513,-118.06422 -41.458757,-59.03211 0,0 z"
       inkscape:path-effect="#path-effect59"
       sodipodi:nodetypes="cc" />
    <path
       style="fill:none;stroke:#000000;stroke-width:0.223472px;stroke-linecap:butt;stroke-linejoin:miter;stroke-opacity:1"
       d="m 91.247057,144.79413 c 9.827323,-5.15481 22.224213,-5.05746 31.969373,0.25105 0.0763,0.0416 0.15239,0.0834 0.22835,0.12553"
       id="path96"
       inkscape:original-d="m 91.247057,144.79413 c 10.656753,0.0838 21.313223,0.16753 31.969373,0.25105 10.65616,0.0835 0.15254,0.0839 0.22835,0.12553"
       inkscape:path-effect="#path-effect98" />
    <path
       style="fill:#e5a900;fill-opacity:1;stroke:#ffffff;stroke-width:0.308124;stroke-miterlimit:4.9"
       d="m 113.29445,222.59355 c -0.2717,-0.0135 -1.28439,-0.0636 -2.25043,-0.11131 -0.96603,-0.0477 -3.63361,-0.14057 -5.92794,-0.20635 -7.905707,-0.22663 -9.473389,-0.37874 -10.555179,-1.02419 -0.534123,-0.31868 -0.697274,-0.56068 -0.69492,-1.03073 0.006,-1.18903 0.702204,-2.82038 2.519982,-5.90449 2.431128,-4.12474 2.845728,-5.40904 2.712567,-8.40269 -0.0841,-1.89065 -0.420566,-3.48683 -1.317713,-6.25114 -1.028964,-3.39729 -2.244764,-6.82919 -2.908457,-9.0621 -3.598605,-11.66987 -5.619075,-19.74321 -6.274847,-25.07291 -0.113919,-0.92587 -0.331685,-3.26442 -0.331989,-3.56523 l -1.66e-4,-0.16272 h 19.029992 19.02998 l 0.0705,0.48818 c 0.17827,1.23444 0.0398,4.02961 -0.31584,6.37598 -0.39394,2.59909 -0.81433,4.31846 -3.61607,14.78961 -3.06351,11.44948 -3.62331,13.82989 -4.22437,17.96312 -0.76487,5.25969 -0.49185,9.33197 0.81183,12.1092 0.50597,1.07785 0.95402,1.71787 1.8377,2.62509 1.59072,1.63308 2.04895,2.17983 2.23175,2.66282 0.65421,1.72857 -1.74443,3.25378 -5.76465,3.66553 -0.94592,0.0969 -3.15887,0.15917 -4.06174,0.11433 z"
       id="path100"
       sodipodi:nodetypes="sssssssccsscccsssssssss" />
    <path
       style="fill:#f4ece1;fill-opacity:1;stroke:#ffffff;stroke-width:0.616245;stroke-miterlimit:4.9"
       d="m 126.32611,164.43639 -0.0497,-2.57407 h -18.97527 c -17.887719,0 -18.980931,0.0119 -19.073976,0.20711 -0.05429,0.11391 -0.06384,-0.13905 -0.02121,-0.56215 0.04261,-0.42309 0.129155,-1.96753 0.192312,-3.43208 0.134587,-3.12097 0.559167,-5.89949 1.329205,-8.69856 0.304421,-1.10655 0.649793,-2.43796 0.767497,-2.95869 0.343064,-1.51776 0.409764,-1.58945 2.1532,-2.3144 4.167753,-1.73303 10.115412,-2.72434 15.256402,-2.54282 2.49679,0.0882 5.5082,0.47215 7.88411,1.00531 1.85729,0.41678 4.98743,1.49351 6.61818,2.27657 l 1.07038,0.51398 0.13025,1.79472 0.0462,0.63673 c 0.19668,2.7101 0.35035,3.57235 1.41156,7.92021 1.2197,4.99719 1.46213,6.58438 1.38284,9.05359 l -0.0722,2.24861 z"
       id="path102"
       sodipodi:nodetypes="ccssssssssssccssscc" />
    <path
       style="fill:#f4ece1;fill-opacity:1;stroke:#ffffff;stroke-width:0.610237;stroke-miterlimit:4.9"
       d="m 121.85782,144.17814 c -2.11605,-1.02814 -5.77337,-2.03513 -9.3725,-2.58057 -1.39628,-0.21161 -2.2508,-0.25124 -5.42497,-0.25161 -3.41095,-3.3e-4 -3.97144,0.0296 -5.92055,0.31722 -2.454587,0.36217 -6.339425,1.37281 -8.03738,2.09092 -1.291253,0.54611 -1.325562,0.47212 -0.301362,-0.64989 3.831803,-4.19773 12.764882,-6.11541 20.493502,-4.39938 1.80089,0.39986 3.44981,0.97034 4.87331,1.67177 1.80385,0.88883 3.24574,1.98793 4.17619,3.21655 0.37039,0.48908 0.64349,0.93301 0.60688,0.9865 -0.0366,0.0535 -0.52851,-0.12718 -1.09312,-0.40151 z"
       id="path104"
       sodipodi:nodetypes="sscssssssss" />
    <text
       xml:space="preserve"
       id="text32"
       style="font-style:normal;font-variant:normal;font-weight:normal;font-stretch:normal;font-size:14.1111px;line-height:1.25;font-family:'Bauhaus 93';-inkscape-font-specification:'Bauhaus 93, ';white-space:pre;fill:#000000;fill-opacity:1;stroke:none"
       transform="translate(132.97096,25.108879)"><textPath
         xlink:href="#path24"
         id="textPath38"><tspan
           id="tspan36"
           style="font-style:normal;font-variant:normal;font-weight:normal;font-stretch:normal;font-size:14.1111px;font-family:'Bauhaus 93';-inkscape-font-specification:'Bauhaus 93, '">       Pilsner Pals </tspan></textPath></text>
    <path
       style="fill:#ffffff;fill-opacity:0;stroke:#ffffff;stroke-width:0.264583px;stroke-linecap:butt;stroke-linejoin:miter;stroke-opacity:1"
       d="m -80.351129,145.59811 c 9.439701,7.9243 20.613933,13.77128 32.505951,17.00892 24.531208,6.67871 51.9747786,1.67598 72.571433,-13.22916"
       id="path24"
       inkscape:original-d="m -80.351129,145.59811 c 10.835582,5.6699 21.670899,11.33955 32.505951,17.00892 10.835052,5.66938 48.38122347,-8.81917 72.571433,-13.22916"
       inkscape:path-effect="#path-effect26" />
  </g>
</svg>
